<svg aria-labelledby="logo-title" enable-background="new 0 0 192 192" height="192px" id="Layer_1" role="img" version="1.1" viewBox="0 0 192 192"
	 width="192px" x="0px" xml:space="preserve" xmlns="http://www.w3.org/2000/svg" xmlns:xlink="http://www.w3.org/1999/xlink" y="0px">
<title id="logo-title">Chart.js Matrix logo</title>
<defs>
	<clipPath id="matrix-inner">
		<path d="M96,159.3l-57.2-33V65.7L96,32.7l57.2,33v60.6L96,159.3z"/>
	</clipPath>
</defs>
<g clip-path="url(#matrix-inner)">
	<rect fill="#081208" height="126.6" width="114.4" x="38.8" y="32.7" />
	<rect fill="#0a430a" height="21.1" width="19.0667" x="38.8" y="32.7" />
	<rect fill="#0b4d0b" height="21.1" width="19.0667" x="57.8667" y="32.7" />
	<rect fill="#0d5f0d" height="21.1" width="19.0667" x="76.9334" y="32.7" />
	<rect fill="#108010" height="21.1" width="19.0667" x="96.0001" y="32.7" />
	<rect fill="#139a13" height="21.1" width="19.0667" x="115.0668" y="32.7" />
	<rect fill="#16c016" height="21.1" width="19.0667" x="134.1335" y="32.7" />

	<rect fill="#0b4d0b" height="21.1" width="19.0667" x="38.8" y="53.8" />
	<rect fill="#0d5f0d" height="21.1" width="19.0667" x="57.8667" y="53.8" />
	<rect fill="#0f7410" height="21.1" width="19.0667" x="76.9334" y="53.8" />
	<rect fill="#129212" height="21.1" width="19.0667" x="96.0001" y="53.8" />
	<rect fill="#14a414" height="21.1" width="19.0667" x="115.0668" y="53.8" />
	<rect fill="#17b717" height="21.1" width="19.0667" x="134.1335" y="53.8" />

	<rect fill="#0c560c" height="21.1" width="19.0667" x="38.8" y="74.9" />
	<rect fill="#0e690e" height="21.1" width="19.0667" x="57.8667" y="74.9" />
	<rect fill="#108010" height="21.1" width="19.0667" x="76.9334" y="74.9" />
	<rect fill="#13a313" height="21.1" width="19.0667" x="96.0001" y="74.9" />
	<rect fill="#15b515" height="21.1" width="19.0667" x="115.0668" y="74.9" />
	<rect fill="#18bc18" height="21.1" width="19.0667" x="134.1335" y="74.9" />

	<rect fill="#0d5f0d" height="21.1" width="19.0667" x="38.8" y="96" />
	<rect fill="#0f7410" height="21.1" width="19.0667" x="57.8667" y="96" />
	<rect fill="#108010" height="21.1" width="19.0667" x="76.9334" y="96" />
	<rect fill="#14a414" height="21.1" width="19.0667" x="96.0001" y="96" />
	<rect fill="#17b717" height="21.1" width="19.0667" x="115.0668" y="96" />
	<rect fill="#20d020" height="21.1" width="19.0667" x="134.1335" y="96" />

	<rect fill="#0b4d0b" height="21.1" width="19.0667" x="38.8" y="117.1" />
	<rect fill="#0d5f0d" height="21.1" width="19.0667" x="57.8667" y="117.1" />
	<rect fill="#0f7410" height="21.1" width="19.0667" x="76.9334" y="117.1" />
	<rect fill="#129212" height="21.1" width="19.0667" x="96.0001" y="117.1" />
	<rect fill="#15b515" height="21.1" width="19.0667" x="115.0668" y="117.1" />
	<rect fill="#18bc18" height="21.1" width="19.0667" x="134.1335" y="117.1" />

	<rect fill="#0a430a" height="21.1" width="19.0667" x="38.8" y="138.2" />
	<rect fill="#0c560c" height="21.1" width="19.0667" x="57.8667" y="138.2" />
	<rect fill="#0e690e" height="21.1" width="19.0667" x="76.9334" y="138.2" />
	<rect fill="#108010" height="21.1" width="19.0667" x="96.0001" y="138.2" />
	<rect fill="#13a313" height="21.1" width="19.0667" x="115.0668" y="138.2" />
	<rect fill="#16c016" height="21.1" width="19.0667" x="134.1335" y="138.2" />

	<path d="M57.8667 32.7V159.3M76.9334 32.7V159.3M96.0001 32.7V159.3M115.0668 32.7V159.3M134.1335 32.7V159.3" stroke="#081208" stroke-width="2"/>
	<path d="M38.8 53.8H153.2M38.8 74.9H153.2M38.8 96H153.2M38.8 117.1H153.2M38.8 138.2H153.2" stroke="#081208" stroke-width="2"/>
</g>
<path d="M96,176l-69.292-39.999V56L96,16l69.292,40v80L96,176z M34.849,131.301L96,166.602l61.151-35.301V60.7
	L96,25.399L34.849,60.7V131.301z" fill="#E7E9ED" />
</svg>
